<svg xmlns="http://www.w3.org/2000/svg" width="1024" height="1024" viewBox="220 186 584 612" preserveAspectRatio="xMidYMid meet" fill="none" shape-rendering="geometricPrecision">

  <path d="M322 280L402 186L470 312Z" fill="#F59E0B"/>
  <path d="M554 312L622 186L702 280Z" fill="#F59E0B"/>

  <path d="M220 518A292 280 0 1 0 804 518A292 280 0 1 0 220 518Z" fill="#F4B53F"/>
  <path d="M286 493A226 165 0 1 0 738 493A226 165 0 1 0 286 493Z" fill="#FFF7E2"/>

  <path d="M334 462A66 66 0 1 0 466 462A66 66 0 1 0 334 462Z" stroke="#60A5FA" stroke-width="18"/>
  <path d="M388 462A12 12 0 1 0 412 462A12 12 0 1 0 388 462Z" fill="#3B82F6"/>

  <path d="M592 396H656A34 34 0 0 1 690 430V494A34 34 0 0 1 656 528H592A34 34 0 0 1 558 494V430A34 34 0 0 1 592 396Z" stroke="#34D399" stroke-width="18"/>
  <path d="M616 442H632A12 12 0 0 1 644 454V470A12 12 0 0 1 632 482H616A12 12 0 0 1 604 470V454A12 12 0 0 1 616 442Z" fill="#10B981"/>

  <path d="M470 578L512 632L554 578Z" fill="#F97316"/>
</svg>