<svg xmlns="http://www.w3.org/2000/svg" width="1024" height="1024" viewBox="220 186 584 612" preserveAspectRatio="xMidYMid meet" fill="none" shape-rendering="geometricPrecision">
  <defs>
    <mask id="face-cutout" maskUnits="userSpaceOnUse" x="220" y="238" width="584" height="560">
      <rect x="220" y="238" width="584" height="560" fill="black"/>
      <path d="M220 518A292 280 0 1 0 804 518A292 280 0 1 0 220 518Z" fill="white"/>
      <path d="M286 493A226 165 0 1 0 738 493A226 165 0 1 0 286 493Z" fill="black"/>
    </mask>
  </defs>

  <path d="M322 280L402 186L470 312Z" fill="currentColor"/>
  <path d="M554 312L622 186L702 280Z" fill="currentColor"/>
  <path d="M220 518A292 280 0 1 0 804 518A292 280 0 1 0 220 518Z" fill="currentColor" mask="url(#face-cutout)"/>
  <path d="M334 462A66 66 0 1 0 466 462A66 66 0 1 0 334 462Z" stroke="currentColor" stroke-width="18"/>
  <path d="M388 462A12 12 0 1 0 412 462A12 12 0 1 0 388 462Z" fill="currentColor"/>
  <path d="M592 396H656A34 34 0 0 1 690 430V494A34 34 0 0 1 656 528H592A34 34 0 0 1 558 494V430A34 34 0 0 1 592 396Z" stroke="currentColor" stroke-width="18"/>
  <path d="M616 442H632A12 12 0 0 1 644 454V470A12 12 0 0 1 632 482H616A12 12 0 0 1 604 470V454A12 12 0 0 1 616 442Z" fill="currentColor"/>
  <path d="M470 578L512 632L554 578Z" fill="currentColor"/>
</svg>